<svg xmlns="http://www.w3.org/2000/svg" xmlns:xlink="http://www.w3.org/1999/xlink" preserveAspectRatio="xMinYMin" viewBox="0 0 3840 1560" height="1560" width="3840">

<title></title>
<g transform="rotate(NaN 1920 780) translate(1920 780) scale(NaN) translate(-1920 -780) translate(0 0)">
<g transform="scale(1 1) translate(0 0)">
<svg style="overflow: visible;" xmlns="http://www.w3.org/2000/svg" fill="none" viewBox="0 0 3840 1560" height="1560" width="3840">
<g clip-path="url(#clip0_171_2)">
<rect fill="#017051" height="1560" width="3840"></rect>
<g clip-path="url(#clip1_171_2)">
<g opacity="0.32">
<path fill-opacity="0.88" fill="white" d="M0 0H3840V2H0V0Z"></path>
<path fill-opacity="0.88" fill="white" d="M0 60H3840V62H0V60Z"></path>
<path fill-opacity="0.88" fill="white" d="M0 120H3840V122H0V120Z"></path>
<path fill-opacity="0.88" fill="white" d="M0 180H3840V182H0V180Z"></path>
<path fill-opacity="0.88" fill="white" d="M0 240H3840V242H0V240Z"></path>
<path fill-opacity="0.88" fill="white" d="M0 300H3840V302H0V300Z"></path>
<path fill-opacity="0.88" fill="white" d="M0 360H3840V362H0V360Z"></path>
<path fill-opacity="0.88" fill="white" d="M0 420H3840V422H0V420Z"></path>
<path fill-opacity="0.88" fill="white" d="M0 480H3840V482H0V480Z"></path>
<path fill-opacity="0.88" fill="white" d="M0 540H3840V542H0V540Z"></path>
<path fill-opacity="0.88" fill="white" d="M0 600H3840V602H0V600Z"></path>
<path fill-opacity="0.88" fill="white" d="M0 660H3840V662H0V660Z"></path>
<path fill-opacity="0.88" fill="white" d="M0 720H3840V722H0V720Z"></path>
<path fill-opacity="0.88" fill="white" d="M0 780H3840V782H0V780Z"></path>
<path fill-opacity="0.88" fill="white" d="M0 840H3840V842H0V840Z"></path>
<path fill-opacity="0.88" fill="white" d="M0 900H3840V902H0V900Z"></path>
<path fill-opacity="0.88" fill="white" d="M0 960H3840V962H0V960Z"></path>
<path fill-opacity="0.88" fill="white" d="M0 1020H3840V1022H0V1020Z"></path>
<path fill-opacity="0.88" fill="white" d="M0 1080H3840V1082H0V1080Z"></path>
<path fill-opacity="0.88" fill="white" d="M0 1140H3840V1142H0V1140Z"></path>
<path fill-opacity="0.88" fill="white" d="M0 1200H3840V1202H0V1200Z"></path>
<path fill-opacity="0.88" fill="white" d="M0 1260H3840V1262H0V1260Z"></path>
<path fill-opacity="0.88" fill="white" d="M0 1320H3840V1322H0V1320Z"></path>
<path fill-opacity="0.88" fill="white" d="M0 1380H3840V1382H0V1380Z"></path>
<path fill-opacity="0.88" fill="white" d="M0 1440H3840V1442H0V1440Z"></path>
<path fill-opacity="0.88" fill="white" d="M0 1500H3840V1502H0V1500Z"></path>
<path fill-opacity="0.88" fill="white" d="M0 1560H3840V1562H0V1560Z"></path>
<path fill-opacity="0.88" fill="white" d="M0 0H2V1560H0V0Z"></path>
<path fill-opacity="0.88" fill="white" d="M60 0H62V1560H60V0Z"></path>
<path fill-opacity="0.88" fill="white" d="M120 0H122V1560H120V0Z"></path>
<path fill-opacity="0.88" fill="white" d="M180 0H182V1560H180V0Z"></path>
<path fill-opacity="0.88" fill="white" d="M240 0H242V1560H240V0Z"></path>
<path fill-opacity="0.88" fill="white" d="M300 0H302V1560H300V0Z"></path>
<path fill-opacity="0.88" fill="white" d="M360 0H362V1560H360V0Z"></path>
<path fill-opacity="0.88" fill="white" d="M420 0H422V1560H420V0Z"></path>
<path fill-opacity="0.88" fill="white" d="M480 0H482V1560H480V0Z"></path>
<path fill-opacity="0.88" fill="white" d="M540 0H542V1560H540V0Z"></path>
<path fill-opacity="0.88" fill="white" d="M600 0H602V1560H600V0Z"></path>
<path fill-opacity="0.88" fill="white" d="M660 0H662V1560H660V0Z"></path>
<path fill-opacity="0.88" fill="white" d="M720 0H722V1560H720V0Z"></path>
<path fill-opacity="0.88" fill="white" d="M780 0H782V1560H780V0Z"></path>
<path fill-opacity="0.88" fill="white" d="M840 0H842V1560H840V0Z"></path>
<path fill-opacity="0.88" fill="white" d="M900 0H902V1560H900V0Z"></path>
<path fill-opacity="0.88" fill="white" d="M960 0H962V1560H960V0Z"></path>
<path fill-opacity="0.88" fill="white" d="M1020 0H1022V1560H1020V0Z"></path>
<path fill-opacity="0.88" fill="white" d="M1080 0H1082V1560H1080V0Z"></path>
<path fill-opacity="0.88" fill="white" d="M1140 0H1142V1560H1140V0Z"></path>
<path fill-opacity="0.88" fill="white" d="M1200 0H1202V1560H1200V0Z"></path>
<path fill-opacity="0.88" fill="white" d="M1260 0H1262V1560H1260V0Z"></path>
<path fill-opacity="0.88" fill="white" d="M1320 0H1322V1560H1320V0Z"></path>
<path fill-opacity="0.88" fill="white" d="M1380 0H1382V1560H1380V0Z"></path>
<path fill-opacity="0.88" fill="white" d="M1440 0H1442V1560H1440V0Z"></path>
<path fill-opacity="0.88" fill="white" d="M1500 0H1502V1560H1500V0Z"></path>
<path fill-opacity="0.88" fill="white" d="M1560 0H1562V1560H1560V0Z"></path>
<path fill-opacity="0.88" fill="white" d="M1620 0H1622V1560H1620V0Z"></path>
<path fill-opacity="0.88" fill="white" d="M1680 0H1682V1560H1680V0Z"></path>
<path fill-opacity="0.88" fill="white" d="M1740 0H1742V1560H1740V0Z"></path>
<path fill-opacity="0.88" fill="white" d="M1800 0H1802V1560H1800V0Z"></path>
<path fill-opacity="0.88" fill="white" d="M1860 0H1862V1560H1860V0Z"></path>
<path fill-opacity="0.88" fill="white" d="M1920 0H1922V1560H1920V0Z"></path>
<path fill-opacity="0.88" fill="white" d="M1980 0H1982V1560H1980V0Z"></path>
<path fill-opacity="0.88" fill="white" d="M2040 0H2042V1560H2040V0Z"></path>
<path fill-opacity="0.88" fill="white" d="M2100 0H2102V1560H2100V0Z"></path>
<path fill-opacity="0.88" fill="white" d="M2160 0H2162V1560H2160V0Z"></path>
<path fill-opacity="0.88" fill="white" d="M2220 0H2222V1560H2220V0Z"></path>
<path fill-opacity="0.88" fill="white" d="M2280 0H2282V1560H2280V0Z"></path>
<path fill-opacity="0.88" fill="white" d="M2340 0H2342V1560H2340V0Z"></path>
<path fill-opacity="0.88" fill="white" d="M2400 0H2402V1560H2400V0Z"></path>
<path fill-opacity="0.88" fill="white" d="M2460 0H2462V1560H2460V0Z"></path>
<path fill-opacity="0.88" fill="white" d="M2520 0H2522V1560H2520V0Z"></path>
<path fill-opacity="0.88" fill="white" d="M2580 0H2582V1560H2580V0Z"></path>
<path fill-opacity="0.88" fill="white" d="M2640 0H2642V1560H2640V0Z"></path>
<path fill-opacity="0.88" fill="white" d="M2700 0H2702V1560H2700V0Z"></path>
<path fill-opacity="0.88" fill="white" d="M2760 0H2762V1560H2760V0Z"></path>
<path fill-opacity="0.88" fill="white" d="M2820 0H2822V1560H2820V0Z"></path>
<path fill-opacity="0.88" fill="white" d="M2880 0H2882V1560H2880V0Z"></path>
<path fill-opacity="0.88" fill="white" d="M2940 0H2942V1560H2940V0Z"></path>
<path fill-opacity="0.88" fill="white" d="M3000 0H3002V1560H3000V0Z"></path>
<path fill-opacity="0.88" fill="white" d="M3060 0H3062V1560H3060V0Z"></path>
<path fill-opacity="0.88" fill="white" d="M3120 0H3122V1560H3120V0Z"></path>
<path fill-opacity="0.88" fill="white" d="M3180 0H3182V1560H3180V0Z"></path>
<path fill-opacity="0.88" fill="white" d="M3240 0H3242V1560H3240V0Z"></path>
<path fill-opacity="0.88" fill="white" d="M3300 0H3302V1560H3300V0Z"></path>
<path fill-opacity="0.88" fill="white" d="M3360 0H3362V1560H3360V0Z"></path>
<path fill-opacity="0.88" fill="white" d="M3420 0H3422V1560H3420V0Z"></path>
<path fill-opacity="0.88" fill="white" d="M3480 0H3482V1560H3480V0Z"></path>
<path fill-opacity="0.88" fill="white" d="M3540 0H3542V1560H3540V0Z"></path>
<path fill-opacity="0.88" fill="white" d="M3600 0H3602V1560H3600V0Z"></path>
<path fill-opacity="0.88" fill="white" d="M3660 0H3662V1560H3660V0Z"></path>
<path fill-opacity="0.88" fill="white" d="M3720 0H3722V1560H3720V0Z"></path>
<path fill-opacity="0.88" fill="white" d="M3780 0H3782V1560H3780V0Z"></path>
<path fill-opacity="0.88" fill="white" d="M3840 0H3842V1560H3840V0Z"></path>
</g>
</g>
</g>
<defs>
<clipPath id="clip0_171_2">
<rect fill="white" height="1560" width="3840"></rect>
</clipPath>
<clipPath id="clip1_171_2">
<rect fill="white" height="1560" width="3840"></rect>
</clipPath>
</defs>
</svg>
</g>
</g>
</svg>